HIERARCHY
ROOT joint_Root
{
	OFFSET 0.0 0.0 0.0
	CHANNELS 6 Xposition Yposition Zposition Zrotation Xrotation Yrotation 
	JOINT Hips
	{
		OFFSET -0.726466 93.3139 -2.00062
		CHANNELS 6 Xposition Yposition Zposition Zrotation Xrotation Yrotation 
		JOINT Spine
		{
			OFFSET 15.7357 0.0 0.0
			CHANNELS 6 Xposition Yposition Zposition Zrotation Xrotation Yrotation 
			JOINT Chest
			{
				OFFSET 8.98455 -0.406207 0.0
				CHANNELS 6 Xposition Yposition Zposition Zrotation Xrotation Yrotation 
				JOINT Neck
				{
					OFFSET 16.3773 0.0 0.0
					CHANNELS 6 Xposition Yposition Zposition Zrotation Xrotation Yrotation 
					JOINT Head
					{
						OFFSET 6.45672 0.0 0.0
						CHANNELS 6 Xposition Yposition Zposition Zrotation Xrotation Yrotation 
						End Site
						{
							OFFSET 0.0 0.0 0.0
						}
					}
				}
				JOINT Shoulder_L
				{
					OFFSET 12.9942 -0.242716 4.98039
					CHANNELS 6 Xposition Yposition Zposition Zrotation Xrotation Yrotation 
					JOINT UpperArm_L
					{
						OFFSET 5.34809 0.0 0.0
						CHANNELS 6 Xposition Yposition Zposition Zrotation Xrotation Yrotation 
						JOINT LowerArm_L
						{
							OFFSET 24.3286 1.87007e-05 0.0
							CHANNELS 6 Xposition Yposition Zposition Zrotation Xrotation Yrotation 
							JOINT Hand_L
							{
								OFFSET 22.2916 0.0 0.0
								CHANNELS 6 Xposition Yposition Zposition Zrotation Xrotation Yrotation 
								End Site
								{
									OFFSET 0.0 0.0 0.0
								}
							}
						}
					}
				}
				JOINT Shoulder_R
				{
					OFFSET 12.9945 -0.242716 -4.98039
					CHANNELS 6 Xposition Yposition Zposition Zrotation Xrotation Yrotation 
					JOINT UpperArm_R
					{
						OFFSET -5.34813 0.0 0.0
						CHANNELS 6 Xposition Yposition Zposition Zrotation Xrotation Yrotation 
						JOINT LowerArm_R
						{
							OFFSET -24.3289 0.000322201 0.0
							CHANNELS 6 Xposition Yposition Zposition Zrotation Xrotation Yrotation 
							JOINT Hand_R
							{
								OFFSET -22.2915 -0.000108084 0.0
								CHANNELS 6 Xposition Yposition Zposition Zrotation Xrotation Yrotation 
								End Site
								{
									OFFSET 0.0 0.0 0.0
								}
							}
						}
					}
				}
			}
		}
		JOINT UpperLeg_L
		{
			OFFSET -2.19248 -6.46944 0.0
			CHANNELS 6 Xposition Yposition Zposition Zrotation Xrotation Yrotation 
			JOINT LowerLeg_L
			{
				OFFSET 39.0811 0.0 -1.23785e-05
				CHANNELS 6 Xposition Yposition Zposition Zrotation Xrotation Yrotation 
				JOINT Foot_L
				{
					OFFSET 40.9854 0.0 -1.26872e-05
					CHANNELS 6 Xposition Yposition Zposition Zrotation Xrotation Yrotation 
					JOINT Toes_L
					{
						OFFSET 11.7543 0.0 0.0
						CHANNELS 6 Xposition Yposition Zposition Zrotation Xrotation Yrotation 
						End Site
						{
							OFFSET 0.0 0.0 0.0
						}
					}
				}
			}
		}
		JOINT UpperLeg_R
		{
			OFFSET -2.19251 6.46944 0.0
			CHANNELS 6 Xposition Yposition Zposition Zrotation Xrotation Yrotation 
			JOINT LowerLeg_R
			{
				OFFSET -39.0811 -0.00228153 -0.0401928
				CHANNELS 6 Xposition Yposition Zposition Zrotation Xrotation Yrotation 
				JOINT Foot_R
				{
					OFFSET -40.9854 0.0 0.0
					CHANNELS 6 Xposition Yposition Zposition Zrotation Xrotation Yrotation 
					JOINT Toes_R
					{
						OFFSET -11.7543 0.0 0.0
						CHANNELS 6 Xposition Yposition Zposition Zrotation Xrotation Yrotation 
						End Site
						{
							OFFSET 0.0 0.0 0.0
						}
					}
				}
			}
		}
	}
}
MOTION
Frames:	9
Frame Time:	0.0333333
0.000000 0.000000 0.000000 0.000000 0.000000 -0.000000 2.079780 92.052500 -1.037430 87.530300 -5.623460 3.997110 15.735700 0.000005 -0.000001 96.320100 84.340300 -99.411700 8.984550 -0.406207 -0.000000 3.529670 1.358630 -6.218720 16.377300 -0.000001 -0.000001 2.192020 -2.290270 0.172241 6.456720 -0.000001 -0.000000 -3.799850 -2.408790 -10.864500 12.994200 -0.242716 4.980390 -88.279800 -4.548010 -69.255600 5.348090 -0.000007 -0.000001 -6.034310 75.456900 -42.584900 24.328600 0.000019 0.000005 9.876100 0.273754 -88.428100 22.291600 -0.000001 0.000005 36.152800 5.473430 -36.741000 12.994500 -0.242716 -4.980390 93.019900 -6.690480 -65.637800 -5.348130 -0.000001 -0.000004 -57.561900 -52.353800 -94.876500 -24.328900 0.000322 -0.000009 -1.977690 -4.537940 -23.568500 -22.291500 -0.000108 -0.000004 20.079200 5.409600 -3.252150 -2.192480 -6.469440 -0.000000 -170.367000 -19.520100 -2.393470 39.081100 -0.000007 -0.000012 -0.182625 0.411653 23.924100 40.985400 -0.000006 -0.000013 -5.875740 -5.029980 -65.484800 11.754300 -0.000000 0.000003 -0.000126 -0.001254 -16.625400 -2.192510 6.469440 -0.000001 172.681000 20.770400 178.762000 -39.081100 -0.002282 -0.040193 0.036742 -0.093685 19.632800 -40.985400 0.000008 0.000006 -2.212210 3.925770 -60.931600 -11.754300 -0.000006 -0.000006 -0.004054 -0.052003 -18.688500
0.000000 0.000000 0.000000 0.000000 0.000000 -0.000000 2.032450 92.051400 -1.068460 87.498500 -5.528580 3.978020 15.735700 0.000005 -0.000001 96.498600 84.356000 -99.581500 8.984550 -0.406207 -0.000000 3.495230 1.390710 -6.201710 16.377300 -0.000001 -0.000001 2.264420 -2.375790 0.283502 6.456720 -0.000001 -0.000000 -3.794460 -2.410860 -10.954000 12.994200 -0.242716 4.980390 -88.271400 -4.580430 -69.298000 5.348090 -0.000007 -0.000001 -5.997610 75.483400 -42.606300 24.328600 0.000019 0.000005 9.929730 0.274378 -88.433200 22.291600 -0.000001 0.000005 36.246700 5.475330 -36.669700 12.994500 -0.242716 -4.980390 93.155700 -6.938730 -65.469300 -5.348130 -0.000001 -0.000004 -57.184400 -52.804700 -98.094600 -24.328900 0.000322 -0.000009 -1.919850 -4.013800 -25.578400 -22.291500 -0.000108 -0.000004 19.834900 5.413360 -3.377160 -2.192480 -6.469440 -0.000000 -170.294000 -19.510800 -2.447470 39.081100 -0.000007 -0.000012 -0.184603 0.415813 23.939400 40.985400 -0.000006 -0.000013 -5.887710 -4.916730 -65.450900 11.754300 -0.000000 0.000003 -0.000117 -0.001174 -16.622500 -2.192510 6.469440 -0.000001 172.766000 20.791500 178.732000 -39.081100 -0.002282 -0.040193 0.037177 -0.094819 19.649200 -40.985400 0.000008 0.000006 -2.164790 3.827950 -60.971000 -11.754300 -0.000006 -0.000006 -0.003929 -0.050705 -18.635600
0.000000 0.000000 0.000000 0.000000 0.000000 -0.000000 1.997710 92.064300 -1.095450 87.477000 -5.471810 3.972890 15.735700 0.000005 -0.000001 96.815400 84.373300 -99.880700 8.984550 -0.406207 -0.000000 3.454990 1.448970 -6.168030 16.377300 -0.000001 -0.000001 2.387770 -2.427590 0.349318 6.456720 -0.000001 -0.000000 -3.834790 -2.461950 -10.984500 12.994200 -0.242716 4.980390 -88.270900 -4.597000 -69.361000 5.348090 -0.000007 -0.000001 -5.885920 75.535000 -42.681200 24.328600 0.000019 0.000005 9.916080 0.273788 -88.434300 22.291600 -0.000001 0.000005 36.245200 5.476370 -36.630000 12.994500 -0.242716 -4.980390 93.301300 -7.197500 -65.279000 -5.348130 -0.000001 -0.000004 -57.172600 -53.095900 -101.489000 -24.328900 0.000322 -0.000009 -1.978180 -3.697200 -28.163200 -22.291500 -0.000108 -0.000004 19.670800 5.423460 -3.716660 -2.192480 -6.469440 -0.000000 -170.261000 -19.497100 -2.453650 39.081100 -0.000007 -0.000012 -0.183920 0.415551 23.874100 40.985400 -0.000006 -0.000013 -5.890570 -4.898930 -65.381600 11.754300 -0.000000 0.000003 -0.000124 -0.001233 -16.624600 -2.192510 6.469440 -0.000001 172.823000 20.752300 178.719000 -39.081100 -0.002282 -0.040193 0.035954 -0.091453 19.637200 -40.985400 0.000008 0.000006 -2.228660 3.731820 -60.881700 -11.754300 -0.000006 -0.000006 -0.003943 -0.050846 -18.641300
0.000000 0.000000 0.000000 0.000000 0.000000 -0.000000 1.972080 92.063900 -1.117560 87.474400 -5.484620 3.954340 15.735700 0.000005 -0.000001 97.159200 84.382500 -100.214000 8.984550 -0.406207 -0.000000 3.430100 1.513880 -6.147940 16.377300 -0.000001 -0.000001 2.370150 -2.572500 0.478558 6.456720 -0.000001 -0.000000 -3.764220 -2.531650 -11.074700 12.994200 -0.242716 4.980390 -88.263200 -4.633200 -69.424900 5.348090 -0.000007 -0.000001 -6.037800 75.514800 -42.544400 24.328600 0.000019 0.000005 9.837050 0.281518 -88.376900 22.291600 -0.000001 0.000005 36.109900 5.472370 -36.778400 12.994500 -0.242716 -4.980390 93.418800 -7.404200 -65.128500 -5.348130 -0.000001 -0.000004 -57.328000 -53.291300 -104.904000 -24.328900 0.000322 -0.000009 -1.919030 -3.150620 -31.364100 -22.291500 -0.000108 -0.000004 19.444000 5.437530 -4.199550 -2.192480 -6.469440 -0.000000 -170.242000 -19.561400 -2.486430 39.081100 -0.000007 -0.000012 -0.182654 0.412567 23.880500 40.985400 -0.000006 -0.000013 -5.882200 -4.817750 -65.359100 11.754300 -0.000000 0.000003 -0.000122 -0.001222 -16.624200 -2.192510 6.469440 -0.000001 172.873000 20.692700 178.674000 -39.081100 -0.002282 -0.040193 0.037708 -0.096251 19.659300 -40.985400 0.000008 0.000006 -2.120770 3.692880 -60.935900 -11.754300 -0.000006 -0.000006 -0.004023 -0.051675 -18.675100
0.000000 0.000000 0.000000 0.000000 0.000000 -0.000000 1.944040 92.071900 -1.144020 87.439600 -5.498770 3.950680 15.735700 0.000005 -0.000001 97.505800 84.391700 -100.519000 8.984550 -0.406207 -0.000000 3.404180 1.577970 -6.067080 16.377300 -0.000001 -0.000001 2.424470 -2.687760 0.576598 6.456720 -0.000001 -0.000000 -3.747310 -2.644440 -11.169900 12.994200 -0.242716 4.980390 -88.271700 -4.637990 -69.536600 5.348090 -0.000007 -0.000001 -6.286670 75.539900 -42.287200 24.328600 0.000019 0.000005 9.734740 0.277694 -88.381800 22.291600 -0.000001 0.000005 35.964000 5.468970 -36.909100 12.994500 -0.242716 -4.980390 93.508000 -7.548140 -64.982300 -5.348130 -0.000001 -0.000004 -57.334700 -53.384100 -108.164000 -24.328900 0.000322 -0.000009 -1.676860 -2.393040 -35.027600 -22.291500 -0.000108 -0.000004 19.398000 5.448560 -4.588180 -2.192480 -6.469440 -0.000000 -170.182000 -19.602800 -2.485890 39.081100 -0.000007 -0.000012 -0.182836 0.413574 23.849800 40.985400 -0.000006 -0.000013 -5.890760 -4.794280 -65.315900 11.754300 -0.000000 0.000003 -0.000123 -0.001228 -16.624500 -2.192510 6.469440 -0.000001 172.935000 20.667700 178.667000 -39.081100 -0.002282 -0.040193 0.036326 -0.092570 19.622500 -40.985400 0.000008 0.000006 -2.173210 3.682970 -60.866900 -11.754300 -0.000006 -0.000006 -0.004023 -0.051675 -18.675100
0.000000 0.000000 0.000000 0.000000 0.000000 -0.000000 1.910130 92.073300 -1.172940 87.427600 -5.511490 3.956960 15.735700 0.000005 -0.000001 97.664900 84.388800 -100.643000 8.984550 -0.406207 -0.000000 3.406050 1.608200 -5.997220 16.377300 -0.000001 -0.000001 2.454020 -2.862700 0.700112 6.456720 -0.000001 -0.000000 -3.782700 -2.780780 -11.230200 12.994200 -0.242716 4.980390 -88.275600 -4.645190 -69.607700 5.348090 -0.000007 -0.000001 -6.071820 75.574900 -42.509800 24.328600 0.000019 0.000005 9.653290 0.283521 -88.333700 22.291600 -0.000001 0.000005 35.978700 5.468860 -36.913200 12.994500 -0.242716 -4.980390 93.574700 -7.640920 -64.834000 -5.348130 -0.000001 -0.000004 -57.205900 -53.367000 -111.316000 -24.328900 0.000322 -0.000009 -1.364130 -1.701750 -38.707300 -22.291500 -0.000108 -0.000004 19.535500 5.457590 -4.913000 -2.192480 -6.469440 -0.000000 -170.151000 -19.588200 -2.495470 39.081100 -0.000007 -0.000012 -0.182739 0.413412 23.847000 40.985400 -0.000006 -0.000013 -5.909420 -4.809770 -65.290700 11.754300 -0.000000 0.000003 -0.000123 -0.001232 -16.624600 -2.192510 6.469440 -0.000001 172.978000 20.668500 178.656000 -39.081100 -0.002282 -0.040193 0.037310 -0.095319 19.624500 -40.985400 0.000008 0.000006 -2.106280 3.688520 -60.889800 -11.754300 -0.000006 -0.000006 -0.004246 -0.053972 -18.768700
0.000000 0.000000 0.000000 0.000000 0.000000 -0.000000 1.888410 92.081600 -1.203680 87.418200 -5.565060 3.959240 15.735700 0.000005 -0.000001 97.945100 84.390800 -100.877000 8.984550 -0.406207 -0.000000 3.395190 1.660500 -5.907070 16.377300 -0.000001 -0.000001 2.476580 -3.038460 0.849935 6.456720 -0.000001 -0.000000 -3.749750 -2.957180 -11.300900 12.994200 -0.242716 4.980390 -88.295800 -4.624640 -69.745500 5.348090 -0.000007 -0.000001 -5.947050 75.648400 -42.623000 24.328600 0.000019 0.000005 9.733520 0.291067 -88.303700 22.291600 -0.000001 0.000005 36.118200 5.472690 -36.770100 12.994500 -0.242716 -4.980390 93.654800 -7.763280 -64.692300 -5.348130 -0.000001 -0.000004 -57.158200 -53.072100 -114.323000 -24.328900 0.000322 -0.000009 -1.202100 -1.314100 -42.437300 -22.291500 -0.000108 -0.000004 19.575700 5.464210 -5.155740 -2.192480 -6.469440 -0.000000 -170.124000 -19.609600 -2.481300 39.081100 -0.000007 -0.000012 -0.182371 0.413529 23.798300 40.985400 -0.000006 -0.000013 -5.926150 -4.842730 -65.242700 11.754300 -0.000000 0.000003 -0.000136 -0.001335 -16.628400 -2.192510 6.469440 -0.000001 173.018000 20.630700 178.645000 -39.081100 -0.002282 -0.040193 0.035807 -0.091319 19.582100 -40.985400 0.000008 0.000006 -2.147080 3.685010 -60.838200 -11.754300 -0.000006 -0.000006 -0.003969 -0.051113 -18.652200
0.000000 0.000000 0.000000 0.000000 0.000000 -0.000000 1.869900 92.078600 -1.223350 87.358100 -5.637660 3.978420 15.735700 0.000005 -0.000001 98.249100 84.383900 -101.127000 8.984550 -0.406207 -0.000000 3.400930 1.719130 -5.801600 16.377300 -0.000001 -0.000001 2.523800 -3.222510 1.017950 6.456720 -0.000001 -0.000000 -3.711330 -3.115600 -11.220600 12.994200 -0.242716 4.980390 -88.293800 -4.642660 -69.795100 5.348090 -0.000007 -0.000001 -5.389660 75.653300 -43.223900 24.328600 0.000019 0.000005 9.890480 0.300167 -88.279000 22.291600 -0.000001 0.000005 36.277400 5.477170 -36.600600 12.994500 -0.242716 -4.980390 93.728400 -7.866970 -64.541200 -5.348130 -0.000001 -0.000004 -57.408900 -52.382700 -117.320000 -24.328900 0.000322 -0.000009 -1.137760 -1.100880 -45.921100 -22.291500 -0.000108 -0.000004 19.291300 5.476270 -5.606230 -2.192480 -6.469440 -0.000000 -170.022000 -19.677100 -2.463860 39.081100 -0.000007 -0.000012 -0.184938 0.418383 23.847100 40.985400 -0.000006 -0.000013 -5.947960 -4.834610 -65.261400 11.754300 -0.000000 0.000003 -0.000126 -0.001250 -16.625300 -2.192510 6.469440 -0.000001 173.102000 20.547600 178.615000 -39.081100 -0.002282 -0.040193 0.037276 -0.095136 19.641600 -40.985400 0.000008 0.000006 -2.057510 3.684760 -60.833100 -11.754300 -0.000006 -0.000006 -0.004148 -0.052972 -18.727900
0.000000 0.000000 0.000000 0.000000 0.000000 -0.000000 1.851500 92.079600 -1.232970 87.356200 -5.697130 4.014140 15.735700 0.000005 -0.000001 98.528600 84.375200 -101.376000 8.984550 -0.406207 -0.000000 3.411100 1.774440 -5.741390 16.377300 -0.000001 -0.000001 2.564050 -3.440590 1.275830 6.456720 -0.000001 -0.000000 -3.649340 -3.305770 -11.202100 12.994200 -0.242716 4.980390 -88.302700 -4.654950 -69.941700 5.348090 -0.000007 -0.000001 -5.464270 75.669400 -43.173300 24.328600 0.000019 0.000005 9.779980 0.298219 -88.270500 22.291600 -0.000001 0.000005 36.093500 5.475210 -36.674400 12.994500 -0.242716 -4.980390 93.779600 -7.933990 -64.423800 -5.348130 -0.000001 -0.000004 -57.644700 -51.409900 -119.942000 -24.328900 0.000322 -0.000009 -1.392470 -1.203790 -49.134800 -22.291500 -0.000108 -0.000004 19.387700 5.486290 -5.990980 -2.192480 -6.469440 -0.000000 -169.995000 -19.707100 -2.412250 39.081100 -0.000007 -0.000012 -0.183583 0.415538 23.835900 40.985400 -0.000006 -0.000013 -5.955010 -4.836630 -65.253600 11.754300 -0.000000 0.000003 -0.000129 -0.001274 -16.626200 -2.192510 6.469440 -0.000001 173.105000 20.553700 178.630000 -39.081100 -0.002282 -0.040193 0.037001 -0.094336 19.647400 -40.985400 0.000008 0.000006 -2.018520 3.740580 -60.836000 -11.754300 -0.000006 -0.000006 -0.004083 -0.052301 -18.700600
